<svg xmlns="http://www.w3.org/2000/svg" viewBox="0 0 758.52 796.87"><defs><style>.cls-1{fill:#fff;}</style></defs><g id="Layer_2" data-name="Layer 2"><g id="Layer_1-2" data-name="Layer 1"><path d="M549.33,113c-5.29-12.35-9.09-23.24-14.64-33.15-2.15-3.85-8.17-7.54-12.6-7.75-18.15-.86-36.38-.36-54.58-.36l-2-3.75c5.84-5.51,11.13-11.79,17.62-16.38,21.38-15.1,46.17-21.25,71.46-25.93,4.33-.81,9.23-2.38,12.36-5.24C586.28,2.78,631.78-7,654.39,5.87,677.87,19.22,700,35.5,720.77,52.79c7.42,6.17,12.41,18.8,13.14,28.88,3.43,47.31-8.25,92.8-18.88,138.48C692.65,316.32,638,393.26,572.86,464.44c-25.29,27.64-50.2,55.7-74,84.64-21.78,26.48-21,27.28-.82,53.87,9,11.87,18.51,23.41,27,35.63,5.72,8.23,12.61,10.93,22.53,10.92,68.59,0,137.18.52,205.77.89a6.59,6.59,0,0,1,5.15,1.93c-24,2.33-48.07,5-72.15,6.93Q473.72,676.56,261,693.6c-22.92,1.85-45.88,3.48-68.7,6.19-6.28.74-12.92,4-18,7.83-13.24,10-24.68,22.76-38.76,31.19C118,749.3,98.57,756.55,80,765.19q-1.56-2.07-3.11-4.15l27.27-46.43-1.92-2.13L2.88,796.87,0,794.17C64.32,690.61,130.23,588.11,204.31,489.22l-23.69-3.62c8.79-13.72,16.66-26.59,25.09-39.08C273,346.89,349.06,255,440.79,176.6c23.32-19.93,49.4-34.55,76.75-47.57C528.24,123.93,538.72,118.39,549.33,113ZM408.57,648.54c-11.31-14.83-21.32-26.45-29.61-39.19-11.71-18-24.84-31.94-48.94-27.29-2.79.53-6.08-1.4-8.81-.77-5,1.14-10.93,2.08-14.49,5.29-19.56,17.7-38.55,36-57.66,54.23-1.94,1.84-3.35,4.25-6,7.73ZM536.93,169.15c-27.54,11.48-56.1,20.5-79,41.63A1570.64,1570.64,0,0,0,286.17,397.52c-9,11.52-17.58,23.4-26.35,35.12l3.55,3.85c8.94-6.91,19.78-12.33,26.5-21,58.66-75.4,121.58-146.84,194-209.41C500.05,192.09,519.15,181.38,536.93,169.15Zm-40,480c-12.83-16.85-23-30.33-33.32-43.7-10.08-13.06-24.66-24.41-13.7-44.85-16,5.49-29.47,10.3-43.1,14.77-10.72,3.52-12.29,7.19-5.52,16.15q19.56,25.9,39.72,51.37c2.16,2.72,5.82,5.84,8.92,6C464.13,649.47,478.42,649.11,496.88,649.11ZM257.66,487.68c-12.25-2.92-18.88.41-24.81,9C201,543.05,168.65,589,136.49,635.1c-2.53,3.62-4.78,7.44-9.16,14.28C184.76,603.63,216.17,542.42,257.66,487.68ZM604.35,32.48,606,38,631.36,31,630,26.11Z"/><path class="cls-1" d="M408.57,648.54H243c2.69-3.48,4.1-5.89,6-7.73,19.11-18.2,38.1-36.53,57.66-54.23,3.56-3.21,9.47-4.15,14.49-5.29,2.73-.63,6,1.3,8.81.77,24.1-4.65,37.23,9.27,48.94,27.29C387.25,622.09,397.26,633.71,408.57,648.54Z"/><path class="cls-1" d="M536.93,169.15c-17.78,12.23-36.88,22.94-53.11,37-72.37,62.57-135.29,134-193.95,209.41-6.72,8.63-17.56,14.05-26.5,21l-3.55-3.85c8.77-11.72,17.33-23.6,26.35-35.12A1570.64,1570.64,0,0,1,457.91,210.78C480.83,189.65,509.39,180.63,536.93,169.15Z"/><path class="cls-1" d="M496.88,649.11c-18.46,0-32.75.36-47-.28-3.1-.14-6.76-3.26-8.92-6q-20.18-25.44-39.72-51.37c-6.77-9-5.2-12.63,5.52-16.15,13.63-4.47,27.14-9.28,43.1-14.77-11,20.44,3.62,31.79,13.7,44.85C473.88,618.78,484.05,632.26,496.88,649.11Z"/><path class="cls-1" d="M257.66,487.68c-41.49,54.74-72.9,116-130.33,161.7,4.38-6.84,6.63-10.66,9.16-14.28C168.65,589,201,543.05,232.85,496.72,238.78,488.09,245.41,484.76,257.66,487.68Z"/><path class="cls-1" d="M604.35,32.48,630,26.11,631.36,31,606,38Z"/></g></g></svg>