<?xml version="1.0" encoding="utf-8"?>
<!-- Generator: Adobe Illustrator 24.3.0, SVG Export Plug-In . SVG Version: 6.00 Build 0)  -->
<svg version="1.1" id="Capa_2" xmlns="http://www.w3.org/2000/svg" xmlns:xlink="http://www.w3.org/1999/xlink" x="0px" y="0px"
	 viewBox="0 0 961.4 300.2" style="enable-background:new 0 0 961.4 300.2;" xml:space="preserve">
<style type="text/css">
	.st0{fill:#FFFFFF;}
	.st1{fill:#363A44;}
	.st2{fill:#719EE1;}
	.st3{fill:#00C2DF;}
	.st4{fill:#EC7E56;}
	.st5{fill:#EB0045;}
	.st6{font-family:'Anecdote-Regular';}
	.st7{font-size:58.4406px;}
</style>
<g>
	<path d="M207,42.6c-2-4.7-3.4-8.8-5.5-12.5c-0.8-1.4-3.1-2.8-4.7-2.9c-6.8-0.3-13.7-0.1-20.6-0.1c-0.3-0.5-0.5-0.9-0.8-1.4
		c2.2-2.1,4.2-4.4,6.6-6.2c8.1-5.7,17.4-8,26.9-9.8c1.6-0.3,3.5-0.9,4.7-2c7.3-6.7,24.4-10.3,33-5.5c8.8,5,17.2,11.2,25,17.7
		c2.8,2.3,4.7,7.1,5,10.9c1.3,17.8-3.1,35-7.1,52.2c-8.4,36.2-29,65.2-53.6,92c-9.5,10.4-18.9,21-27.9,31.9
		c-8.2,10-7.9,10.3-0.3,20.3c3.4,4.5,7,8.8,10.2,13.4c2.2,3.1,4.8,4.1,8.5,4.1c25.8,0,51.7,0.2,77.5,0.3c0.6,0,1.3,0.1,1.9,0.7
		c-9.1,0.9-18.1,1.9-27.2,2.6c-53.4,4.3-106.8,8.6-160.3,12.9c-8.6,0.7-17.3,1.3-25.9,2.3c-2.4,0.3-4.9,1.5-6.8,3
		c-5,3.8-9.3,8.6-14.6,11.8c-6.6,4-13.9,6.7-20.9,9.9c-0.4-0.5-0.8-1-1.2-1.6c3.4-5.8,6.9-11.7,10.3-17.5c-0.2-0.3-0.5-0.5-0.7-0.8
		C26,279.1,13.6,289.6,1.1,300.2c-0.4-0.3-0.7-0.7-1.1-1c24.2-39,49.1-77.6,77-114.9c-3-0.5-5.6-0.9-8.9-1.4
		c3.3-5.2,6.3-10,9.5-14.7c25.3-37.5,54-72.2,88.6-101.7c8.8-7.5,18.6-13,28.9-17.9C199,46.7,203,44.6,207,42.6z M153.9,244.4
		c-4.3-5.6-8-10-11.2-14.8c-4.4-6.8-9.4-12-18.4-10.3c-1,0.2-2.3-0.5-3.3-0.3c-1.9,0.4-4.1,0.8-5.5,2c-7.4,6.7-14.5,13.6-21.7,20.4
		c-0.7,0.7-1.3,1.6-2.3,2.9C112.4,244.4,132.4,244.4,153.9,244.4z M202.3,63.7c-10.4,4.3-21.1,7.7-29.8,15.7
		c-23.5,21.7-45,45.2-64.7,70.4c-3.4,4.3-6.6,8.8-9.9,13.2c0.4,0.5,0.9,1,1.3,1.5c3.4-2.6,7.5-4.6,10-7.9
		c22.1-28.4,45.8-55.3,73.1-78.9C188.4,72.4,195.6,68.3,202.3,63.7z M187.2,244.6c-4.8-6.3-8.7-11.4-12.6-16.5
		c-3.8-4.9-9.3-9.2-5.2-16.9c-6,2.1-11.1,3.9-16.2,5.6c-4,1.3-4.6,2.7-2.1,6.1c4.9,6.5,9.9,13,15,19.4c0.8,1,2.2,2.2,3.4,2.3
		C174.9,244.7,180.3,244.6,187.2,244.6z M97.1,183.8c-4.6-1.1-7.1,0.2-9.3,3.4c-12,17.5-24.2,34.8-36.3,52.1c-1,1.4-1.8,2.8-3.4,5.4
		C69.6,227.4,81.4,204.4,97.1,183.8z M227.7,12.2c0.2,0.7,0.4,1.4,0.6,2.1c3.2-0.9,6.4-1.8,9.6-2.7c-0.2-0.6-0.3-1.2-0.5-1.8
		C234.2,10.6,230.9,11.4,227.7,12.2z"/>
	<path class="st0" d="M153.9,244.4c-21.5,0-41.6,0-62.4,0c1-1.3,1.5-2.2,2.3-2.9c7.2-6.9,14.4-13.8,21.7-20.4c1.3-1.2,3.6-1.6,5.5-2
		c1-0.2,2.3,0.5,3.3,0.3c9.1-1.7,14,3.5,18.4,10.3C145.9,234.4,149.7,238.8,153.9,244.4z"/>
	<path class="st0" d="M202.3,63.7c-6.7,4.6-13.9,8.6-20,13.9c-27.3,23.6-51,50.5-73.1,78.9c-2.5,3.3-6.6,5.3-10,7.9
		c-0.4-0.5-0.9-1-1.3-1.5c3.3-4.4,6.5-8.9,9.9-13.2c19.7-25.2,41.2-48.7,64.7-70.4C181.2,71.5,191.9,68.1,202.3,63.7z"/>
	<path class="st0" d="M187.2,244.6c-7,0-12.3,0.1-17.7-0.1c-1.2-0.1-2.5-1.2-3.4-2.3c-5.1-6.4-10-12.8-15-19.4
		c-2.5-3.4-2-4.8,2.1-6.1c5.1-1.7,10.2-3.5,16.2-5.6c-4.1,7.7,1.4,12,5.2,16.9C178.6,233.1,182.4,238.2,187.2,244.6z"/>
	<path class="st0" d="M97.1,183.8c-15.6,20.6-27.5,43.7-49.1,60.9c1.6-2.6,2.5-4,3.4-5.4c12.1-17.4,24.3-34.7,36.3-52.1
		C90,183.9,92.5,182.6,97.1,183.8z"/>
	<path class="st0" d="M227.7,12.2c3.2-0.8,6.5-1.6,9.7-2.4c0.2,0.6,0.3,1.2,0.5,1.8c-3.2,0.9-6.4,1.8-9.6,2.7
		C228.1,13.6,227.9,12.9,227.7,12.2z"/>
</g>
<g>
	<path d="M381.2,243.3c0.8-2.8,0.6-5.8-0.3-8.3c-0.3-0.8-1.4-1.7,0.6-2.2c0.6,0,0.6-0.6,0.6-1.4c-0.3-1.1,0-2.5,0.3-3.9
		c0.3-1.7-1.1-3.3,1.7-4.4c-1.4-1.1,0.3-2.5,0-3.6c-0.8-1.4-0.8-3,0.3-4.7c1.1-1.7,0.3-3,0.8-4.7c0.3-1.1,1.4-1.7,1.4-3
		c-0.3-2.8,0.8-5.5,0.8-8.3c0-1.4,2.2-3,0.6-4.4c0-0.3,0-0.6,0.3-0.6c3.3-1.7,1.4-5.5,3.9-7.4c1.1-1.1,0-1.4,0-2.2
		c-0.6-2.5-1.1-5,0.8-7.4c1.4-2.2,1.7-4.7,1.9-7.2c0-0.3,0.3-1.7-0.8-1.9c-1.7-0.3-0.6-1.7-0.3-2.5c-1.4,0.6-2.2,1.1-3-0.3
		c-0.8-0.8-1.7-1.7-2.5-1.7c-5.2-0.3-5.5-5-7.4-8.3c-0.3,0-0.8,2.8-1.7,0.6c-1.1-3-3.9-4.7-5.8-7.2c-1.4-1.9-2.8-3.9-2.5-7.4
		c0.6-5,2.8-9.1,5.5-13.5c2.2-3.3,5-5.8,8-8.3l1.4-2.2c3.3-4.4,8-6.1,11.8-8.5c5-3,9.1-6.9,14.9-8.3c1.9-0.3,2.2-3,3.6-5
		c1.1-1.4-0.3-3.6,1.4-5.2v-0.8c-0.8-1.1-2.8-2.2,0.3-3.6c0.6-0.6,0-1.4,0-2.2c1.1-3,3.3-5.8,3.3-8.8c0.8-5,2.8-9.9,3.6-14.6
		c0-2.2,1.7-3.3,1.7-5c0.6-1.9,0.6-3.9,1.1-6.1c0.3-1.7,1.7-3.3,1.9-5c0.3-1.9,0.3-4.1,0.6-6.1c0.3-1.4,0.8-2.8,1.9-3.9
		c0.6-0.6,1.1-1.4,0.6-1.9c-0.6-0.6-1.1-1.1-2.2-0.8c-4.4,1.1-8.8,1.9-13.2,3c-4.4,1.1-8.8,3-13.2,3.9c-3.9,0.8-6.9,2.8-10.2,5
		c-2.2,1.4-5.2,1.7-7.7,3c-4.1,1.7-7.7,5-12.1,6.1c-4.1,1.1-6.9,4.7-11,6.3c-1.7,0.6-3.6,2.8-3.9,3.9c-0.6,2.5-2.8,1.9-4.1,3
		c-0.3,0.3-1.1,0-1.4-0.3c-1.9-1.9-2.5-8.3-0.6-10.5c2.2-2.8,4.4-5.5,6.6-8c3-3,6.3-5.8,9.9-8c4.4-2.5,8.3-6.1,12.7-8
		c1.4-0.6,2.5-1.4,3.6-2.2c1.9-1.7,4.7-1.1,6.9-2.5c3.3-1.7,6.9-3.6,10.5-4.7c5.2-1.9,10.5-3.6,15.7-5.2c4.7-1.7,9.6-2.5,14-4.7
		c3-1.4,6.1-1.1,9.1-1.9c6.3-1.7,12.9-2.8,19.3-3.3C466,6,471,6,475.9,5.4c2.8-0.3,5.2,0.8,8.3,0.3C491.1,4.6,498,6,504.6,6
		c2.8,0,5.2,0.6,8,1.4c1.4,0.6,3-0.3,4.7,0.3c4.1,1.7,9.1,1.1,13.5,2.2c3.3,0.8,7.4,0.6,9.6,3.6c0.6,0.6,1.4,0.6,2.5,0.8l-2.8,0.8
		c3,0.6,5.2,1.7,7.4,3c1.4,0.8,2.8,1.7,4.4,2.2c0.8,0.3,2.8,0.8,3.6,1.7c1.4,1.1,1.7,3,2.2,4.4c0.3,1.1,0.8,2.2,1.1,3.3
		c1.1,1.9-1.4,3.6-1.1,5.5c0.3,3.6-1.1,6.9-3.3,9.9c-0.6,0.8-0.3,1.9-0.8,2.8c-2.5,3-5,5.8-8.3,8.3c-2.2,1.4-4.7,3-6.9,4.1
		c-1.9,1.4-4.4,2.5-6.3,3.9c-3.6,2.5-7.7,4.7-11.6,8c-2.5,2.2-6.1,3.9-9.1,4.7c-3.3,1.1-6.1,2.2-8.8,5c-0.6,0.8-2.2,1.9-3.6,1.4
		c-0.8-0.3-2.8,0-4.1,1.7c-1.1,1.4-3.3,2.2-5.5,2.2c-2.8,0-5.5,1.9-8,3.9c-2.8,1.9-6.1,2.2-9.1,3.3c-2.2,0.8-4.7,2.2-6.9,3.3
		c-3.9,1.9-7.4,4.1-11.6,4.7c-2.8,0.3-5,2.2-6.3,3.9c-1.1,1.4-2.2,2.8-3.9,2.8c-4.1-0.3-7.7,2.8-11.6,3.6c-0.6,0.3-1.4,1.4-1.7,2.5
		c0,3.3-1.9,6.3-3,9.6c-0.6,2.2-1.9,5-0.8,7.4c0.3,0.6,0.6,1.1-0.6,1.1c-1.1,0.3-0.6,0.8-0.6,1.4c0.6,2.2-0.8,4.4-1.7,6.3
		c-2.2,4.4-3.3,9.1-3.9,13.8c-0.3,1.1-0.6,3,1.9,3c0.8,0,1.9,1.1,0.6,2.5c-0.3,0-0.3,0.6,0,0.8c0.8,0.6,0.8-0.6,0.8-0.6
		c1.1-0.6,2.8-1.1,3.3-0.6c1.4,1.9,3.6,1.1,5.5,2.2c0.8,0.6,2.5,0.3,2.2,2.2c0.3,1.1,2.5,1.4,3.3,1.7c6.1,1.4,11.8,2.5,16.8,5
		c1.4,0.8,3.6,0.8,4.7,2.8c0.6,1.1,1.9,1.7,3.6,1.7c1.1,0,2.2,1.1,3.3,1.7c3.3,2.2,6.3,4.7,10.5,5.5c1.4,0.6,1.9,1.7,3,2.5
		c2.8,1.4,5.5,2.2,8.5,3.6c1.1,0.6,2.8,1.1,2.8,3.3c-0.3,0.6,0.6,0.8,0.8,0.6c2.2-1.9,3,0.3,4.4,1.1c0.3,0.3,0.6,0.6,0.3,1.4
		c1.4,0,2.5,0.8,1.9,2.2c-0.8,1.4-2.5,0.6-3.6,0.6c-3,0.3-6.3,0.6-8.8-1.1c-0.3-0.3-0.8-0.3-0.8-0.3c-3.9,3.3-6.9,0.6-10.5,0.6
		c-1.1,0-2.2-0.3-3.3-0.3c-4.7,0.6-9.6-0.3-14-1.7c-5.5-1.9-11.6-3.3-17.1-5c-3.3-0.8-5.5-3.3-9.4-3c0-2.2-2.8-1.9-3.9-3.6
		c0,0-0.3,0-0.3-0.3c-3,2.8-3.6-2.5-6.3-0.8c-0.8,0.6-2.8-1.4-4.1-2.2c0-0.3,0.3-1.7-0.6-0.8c-1.7,1.1-4.4,0-4.7,2.8
		c0,1.7-0.6,3-0.8,4.7c0,0.8-0.8,1.7-0.3,2.8c0.6,1.4-1.1,3-1.4,3.6c-2.2,3-1.7,6.3-2.5,9.4c-1.4,3.3-2.8,6.6-3.3,10.2
		c-0.3,3-2.5,6.1-3.9,8.8c-1.7,3.9-2.5,8-5.2,11.8c-2.5,3.9-4.7,8.5-8.3,12.1c-1.1,1.1-2.5,2.2-3.6,1.9
		C380.4,246.3,381,244.6,381.2,243.3z M403.3,142c1.4-3,0.8-6.3,1.9-9.1c0.6-1.1,0.6-1.4,0-2.2c-0.6-0.8-2.5,0-2.8-1.4
		c-0.6,1.9-2.8,1.4-3.6,2.8c-0.6,0.8-1.7,2.2-3,1.4c-0.6-0.3-0.6,0-0.8,0.6c0,1.1-0.8,2.8,0.6,3.3c1.9,1.1,2.8,3,3.6,5
		c0.6,1.1,1.9,2.2,3.3,2.2C404.1,144.2,403,142.8,403.3,142z M448.7,84.2c1.1-3.3,4.7-3,6.9-4.7c1.1-1.1,3.3-1.7,5-2.5
		c1.9-0.8,3.9,0.3,5.5-1.1c4.4-4.4,10.7-4.1,15.7-8.3c1.9-1.7,5.2-1.9,8.3-3c5-1.9,9.6-4.1,14.3-6.9c3.6-2.2,7.4-4.1,11.3-6.3
		c1.1-0.6,1.9,0,2.8-1.1c2.5-2.2,5-3.9,7.7-5.2c3.3-1.9,6.1-4.1,8.5-6.6c0.6-0.3,1.4-0.8,0.8-1.7c-2.2-2.8-4.7-5.2-8.8-5.8
		c-1.4,0-3-0.3-3.6-1.4c-0.6-0.8-1.1-0.8-1.9-1.1c-3.3-0.3-6.6,0-9.9-0.6c-2.2-0.6-4.1-1.1-6.3-1.4c-3.6-0.3-6.6-1.9-10.5-1.1
		c-1.9,0.6-4.1,1.1-5.8,0c-2.2-1.1-4.7-0.6-7.4-0.8c-1.1,0-1.7,1.9-2.8,0.8c-0.8-1.4-2.2-0.8-3.9-0.8c-1.9,0-4.1,0.8-6.3,0.8
		c-3.6,0-6.9-0.3-10.7,1.1c-2.2,0.6-4.1,1.7-5.8,1.4c-3-0.3-1.9,2.5-2.2,2.8c0.6,3,0.3,5.5-0.8,8.5c-1.4,2.8-3,5.5-2.5,8.3
		c0.3,3.6-2.2,7.4-1.1,10.7c-2.2,2.5-1.9,5-2.5,7.4c-0.6,4.7-2.5,9.4-3.3,14.3c-0.3,1.4-0.8,2.8-1.1,4.1c0.6,0.8-1.4,3,1.1,3.3
		C442.9,87.7,445.4,84.2,448.7,84.2z"/>
	<path d="M515,220.1c-1.1-4.7-1.7-9.4-0.3-14.3c0.8-3.3,0.6-6.9,1.1-10.2c0.3-2.5,1.1-4.7,1.7-6.9c0.8-3.3,1.9-6.3,2.2-9.9
		c0-0.8,0.6-1.7,1.1-2.2c1.9-1.7,1.4-5.5,3.3-6.1c3-1.1,1.9-3.3,2.2-5c0.3-1.4-0.3-1.7-1.4-1.1c-1.4,0.6-2.2-0.3-3-1.1
		c-0.6-1.1,0-1.7,0.3-2.8c1.4-4.1,4.4-6.1,7.7-7.4c1.1-0.6,2.2-1.4,2.5-2.2c0.8-2.2,3-3,3.6-6.1c0.8-4.1,2.2-8.5,5.8-11.6
		c0.3-0.3,0.6-0.6,0.6-1.1l0.8-3c0.3-1.9,1.1-3,2.2-4.4c2.5-2.5,2.8-6.1,4.4-9.1c1.4-3,0.3-7.4,4.4-9.4c1.9-1.1,2.8-2.8,1.9-5
		c0-0.3,0.3-1.9,1.9-2.8c1.1-0.6,1.7-2.5,2.5-3.9c1.1-1.9,1.9-3.9,3-5.5c0-0.3,0.3-0.3,0.3-0.3c-0.8-2.8,1.1-3.3,3-4.1
		c1.1-0.3,0.6-0.8,0-1.1c-1.1-0.8-1.4-1.1-0.3-1.7c3-1.9,2.8-5.5,5-8c1.4-1.9,1.4-4.4,3.3-6.1c0.6-0.6,0.6-0.8,0-1.1
		c-1.7-0.8,0-1.7,0.3-1.9c1.1-1.4,1.1-1.4,0.8-3c0,0,0-0.3,0.3-0.6c3.6-1.1,3.6-4.7,4.4-7.2c0.8-1.9,2.5-2.2,3.3-3.9l3.6-5.8
		c1.4-2.8,2.5-5.5,4.7-7.7c0.8-1.1,1.4-2.5,1.4-3.6c0.3-1.7,0.8-3,2.2-4.1c2.5-1.9,0.6-5,1.9-7.2c1.4-2.8,0.3-5.8,1.4-8.5
		c1.9-3.3,6.9-5.2,10.2-3.3c1.7,1.1,2.2-0.6,3-1.1c0.8-0.6,1.1-2.8,3-1.1c0.3,0.3,2.5-0.8,3.6-1.4c2.2-0.8,3.3,0.3,4.7,1.4
		c1.7,1.4,3.6,2.8,3.9,5.2c0.3,2.5-0.6,4.4-2.2,6.3c-1.7,2.2-3.3,4.7-4.1,7.4c-0.8,2.2-2.2,5-3.6,6.1c-1.9,1.4-2.2,3.3-3.3,5
		c-0.8,1.4-0.8,2.8-0.8,4.1c0,1.7-0.3,4.1-1.1,5.2c-1.7,2.2-0.3,4.7-0.8,6.9c-0.8,2.2-1.7,4.7-0.8,7.2v0.3c-3.3,0.8-0.6,3-0.8,4.4
		c-0.6,1.7,0,4.1-0.6,5.2c-1.7,2.2-0.6,4.4-0.6,6.3c0,1.7,0.6,2.2,1.9,3c-1.7,0.6-2.2,1.4-1.9,2.8c0.3,0.3,0.3,1.1,0,1.4
		c-1.7,3-1.7,6.3-1.9,9.4c-0.8,4.7-2.2,9.4-1.1,14c0.3,1.7-0.8,3.6-0.8,5.5c0.3,6.9-1.9,13.8-2.8,20.6c-0.8,8.5-0.6,17.1-2.8,25.6
		c-0.8,3,0,6.6-0.6,9.9c-0.6,5.2-1.4,10.7-1.7,16.2c0,1.1,0.3,3.6-1.9,4.1c1.1,2.2-0.8,3.6-0.8,5.5c0,2.2,1.4,5-2.5,5.5v0.8
		c1.1,3,1.1,3-1.9,3.6c0.6,0.8,1.4,0.3,2.2,0.8c-1.1,1.1-1.7,2.5-2.2,3.9c-0.3,0.8-0.6,1.7-1.7,1.7c-1.1-0.3-1.4-1.1-1.7-1.9
		c-1.7-4.4-3.9-9.1-3.6-14c0-2.2-1.9-4.1-0.6-6.6c-2.5-0.6-1.1-2.2-1.1-3.3c-0.3-1.7-0.6-3.6-0.3-5.2c0.8-5.2-0.3-10.2,0.3-15.4
		c0.3-3.3,0-6.9,0.6-10.5c0.3-2.8-0.6-2.8-3.3-2.5c-6.1,0.6-11.6,3-17.6,3c-1.7,0.3-4.1,0.6-5.8,2.2c-0.3,0.3-0.8,0.8-1.4,0.8
		c-5.5-1.1-5.5,3.9-7.2,6.9c-0.8,1.9-1.1,4.1-3,5.5c-1.7,1.7-0.8,4.1-2.2,6.1c-1.9,2.5-3.3,5.2-5,7.7c-0.8,1.4-1.4,2.8-1.7,4.4
		c-0.6,2.2-2.2,4.4-3.6,6.6c-1.9,2.8-3.9,5.8-5,8.8c-2.5,5.5-6.6,9.9-8.3,15.7c-0.3,0.8-0.6,1.7-1.7,1.7
		C515.3,222.1,515.3,221,515,220.1z M581.9,140.9c0-3.6,2.5-6.3,1.4-10.5c-0.8-2.5,0.6-5.8,1.4-8.8c0.3-1.4,0.3-2.5,0-3.9
		c-0.3-0.8-0.6-1.7,0-2.8c0.8-1.7,1.1-3.9,0.8-6.1c-0.6-1.7-0.6-3.3,0-5.2c0.3-2.8,2.2-5.5,1.4-8.5c0-0.6,0.6-0.6,0.8-0.8
		c1.7-1.7-0.8-1.9-1.1-3.3c0-0.8-0.6,0-1.1,0.3c-2.5,1.9-2.5,5.5-5.5,6.9c-0.3,0,0.3,0.6,0.3,0.8c0.3,0.3,0.6,1.1,0,1.1
		c-2.5,2.2-2.5,5.5-3.9,8.3c-1.7,3-2.2,6.6-5,9.1c-0.8,0.8-1.4,1.9-1.4,3c0,1.4-0.8,2.5-1.4,3.3c-2.8,3.3-5,7.4-6.3,11.3
		c-1.1,3-2.8,5.8-4.4,8.8c-0.6,1.1,1.9,0.6,3,0.3c2.5-0.3,5.5-1.4,7.7-1.1c3,0.8,6.1,1.7,9.1,1.1c1.4,0,2.2,1.9,3.9,0.8
		C583.8,143.6,581.9,142.2,581.9,140.9z"/>
	<path d="M631.7,208.9c-0.8-1.7-2.2-2.5-1.1-5c-2.8-1.7-0.6-5.5-1.4-8c-0.8-2.2-1.4-4.4-1.7-6.6c0-2.2-0.3-5.5,1.1-7.2
		c1.7-1.9-1.1-3,1.1-4.4c-1.1-2.5,0.8-5.5,1.1-8c0.3-3.3,2.2-6.6,1.7-9.4c-0.3-2.5,1.7-5.2,1.1-7.7c0-1.1,1.4-2.5,1.9-4.1l1.4-8
		c0.8-2.8,1.1-5.5,0.8-8c-0.6-1.1,1.7-1.4,1.4-3c-0.3-1.1,0.3-2.5-0.6-3.6c-1.4-1.4,0.8-3.3,1.1-5c0.8-2.5,1.4-5,2.5-7.4
		c1.1-2.8,1.1-5.8,0.8-8.5c-0.3-2.2,0-3.3,3-3.6c-0.8-0.3-1.7-0.3-1.4-1.9l1.7-13.8c0-3.9-0.3-7.7,0-11.8c0.3-1.7,1.4-1.9,2.2-2.5
		c-0.3-1.1-1.1,0.3-1.7-0.3c1.7-1.9,2.8-4.1,5-5.5c2.5-1.7,4.1-2.5,7.2-2.2c3.3,0.6,4.7,1.9,5.5,4.1c1.1,2.2,1.7,4.7,1.7,7.2
		c-0.3,2.8,1.7,5-0.6,8c1.4,3.3,0,7.4,0.8,11c0,0.6,0.3,0.8-0.3,1.1c-1.4,3.9-0.6,6.9-0.6,10.2c-0.3,1.4-1.1,2.8-1.7,3.9
		c-1.9,5.5-1.7,10.5-1.9,15.7c0,1.1,0,1.9-1.4,3c-1.4,1.4-1.4,3.6-1.4,4.4c0.6,1.7-0.3,3-0.8,4.7c-1.1,1.1,0,2.5-0.3,2.5
		c-1.7,1.1-0.3,1.9-0.3,2.8c-1.1,3,0,5.8-2.5,9.1c-0.8,1.1-0.8,3.6-0.6,5c0.3,3.3-0.8,6.6-2.5,9.9c-0.8,1.7,0.6,2.2,1.1,2.5
		c1.4,0.3,1.7-1.4,1.9-1.9c0-2.2,1.9-4.1,2.2-6.3c0-1.4,1.4-2.2,2.2-2.8c2.5-2.8,3.9-5.8,5-8.5c0.6-1.1,1.4-1.9,1.9-2.8
		c1.1-1.7,2.8-3.3,2.5-6.1c0-1.7,1.1-5.5,3-6.9c2.2-1.7,3-3.6,4.1-5.5c3-5.5,7.7-11,10.5-16.5c2.5-5.8,7.4-11.3,9.1-17.3
		c0.3-1.7,2.2-2.2,3-3.9c2.2-3.6,5-6.9,6.6-10.5c1.1-1.9,2.2-4.1,4.4-5.8c1.4-0.8,1.7-2.5,2.2-3.6c1.9-4.4,5.8-8,7.4-12.1
		c1.9-3.9,5-7.2,6.3-11c3-0.8,3.3-3.9,5.2-5.8c1.7-1.9,3.3-3.9,4.4-6.3c0-0.3,0-0.6,0.6-0.8c2.8-1.9,3.6-5,5.8-7.4
		c4.1-3.9,6.9-8.5,11-12.4c2.5-2.2,5-5,8.5-6.9c1.9-0.8,4.1-2.8,6.1-4.4c1.4-0.8,3-1.1,4.1-1.7c1.4-0.8,1.9,0.6,1.4,1.7
		c-0.6,1.7-0.8,3.3-1.9,4.7c-3,5.2-5.5,10.5-7.7,15.7c-1.1,2.8-3.6,5-4.4,7.7c-0.8,2.8-2.5,5.5-5,8c-1.1,0.8-1.4,2.5-1.7,3.9
		c-0.8,2.2-1.4,4.4-3.9,5.8l-0.3,0.3c-0.6,3.3-4.4,6.1-4.7,9.4c-3,0.8-1.9,3.6-3.9,5.5c-1.7,1.1-3.3,3.6-4.4,5.8
		c-0.3,1.4-2.8,2.2-2.2,3.9c-2.5-0.3-1.7,2.2-2.5,2.8c-2.2,1.1-1.7,3-2.8,4.4c-1.4,1.7-2.8,3-3.6,4.7c-1.4,3.3-4.4,6.3-5.2,10.2
		c-0.3,2.5-3.6,4.7-5.2,7.2c-1.4,1.7-3.3,3.3-2.5,5.2c0.3,0.8-0.3,0.8-1.1,1.1c-0.6,0.6-1.1,1.1-0.6,1.9c0.3,0.6,0.3,0.8-0.3,1.4
		c-2.8,1.9-3.3,4.4-4.7,6.3c-1.9,2.2-2.2,5-4.4,7.2c-2.5,2.2-2.8,5.5-4.4,8.3c-1.1,1.7-2.5,2.2-3.3,3.9c-1.7,2.8-3,5.8-3.9,8.8
		c-0.3,1.4-1.9,2.5-2.8,3.9c-2.2,3-3,6.3-5.2,9.4c-0.6,1.4-1.9,2.8-2.5,4.4c-0.3,0.8-1.1,1.7-0.3,2.2v0.8c-2.8,2.2-3.6,5-5.2,7.7
		c-0.6,0.6-1.1,0-1.1,0c0,0.8-2.8,1.1-0.8,1.9c0.6,0,0.3,0.3,0,0.6c-1.1,1.1-1.4,2.8-2.2,3.6c-2.8,2.2-1.7,5.2-4.4,7.2l-0.3,0.3
		c-0.3,2.8-2.8,4.4-5,6.1c-0.3,0.6-0.8,1.1-0.8,1.7c0,2.2-0.8,4.4-2.5,6.3c-0.6,1.1-2.2,2.8-3,4.1c-1.4,1.4-2.5,2.8-4.7,3
		c-1.7,0.3-2.8,1.4-4.4,2.5c-1.9,1.4-3.9,1.7-5.8,1.7C634.2,213.8,632.8,211.6,631.7,208.9z"/>
	<path d="M786.4,191c-1.4-1.9-3.9-1.9-6.1-2.5c-4.1-0.8-8.5-0.8-12.4-2.2c-3-1.1-6.3-1.1-9.6-1.4c-1.9,0-2.8-1.9-4.7-1.4
		c-3,0.8-5-0.8-7.7-1.7c-5.8-1.7-9.9-6.1-12.4-11.3c-1.4-2.5-1.4-5.2-3-7.4c-1.1-1.7,0.6-2.2,2.5-1.9c-3-1.4-2.8-3.9-1.9-6.6
		c0.6-1.7,1.7,0.6,2.8-0.3c-2.5-3,0.8-4.4,2.2-6.3c2.2-2.5,4.4-5.2,8.3-6.1c1.4-0.6,2.2-1.7,2.8-2.5c1.9-2.5,4.7-3.6,7.2-4.4
		c1.4-0.6,1.7-1.9,3.3-2.8c8-2.8,15.1-7.2,22.6-10.7c1.1-0.6,1.7-1.4,1.9-1.9c0-1.4-1.4-0.8-1.9-1.1c-1.9-1.4-5-1.9-6.9-3.9
		c-0.6-0.6-1.4,0-1.9,0c-3-0.8-5.5-3-9.1-3.3c-0.3-0.3-0.8-0.3-0.6-0.6c-0.8-3.3-4.7-3.3-6.6-5.8c-0.8-1.4-2.8-1.7-4.4-1.7
		c-2.2,0-3-1.9-3.9-3c-2.5-3.6-3.6-8-1.7-12.1c1.4-2.8,1.4-6.6,5.5-8.3c3-1.1,5.8-3,8-5.5c1.4-1.4,3.3-1.7,4.7-1.9
		c2.2-0.6,3.6-2.2,6.1-2.8c3-1.1,5.2-4.1,8-5.2c3.6-1.4,6.3-3.9,9.6-5c3.9-1.4,6.9-4.7,11-6.3c4.1-1.7,7.4-4.7,11.3-7.2
		c3.6-1.9,6.3-4.7,9.9-6.6c2.5-1.1,3.9-3.9,6.6-5c4.4-2.2,8-5.2,12.7-7.2c1.9-0.8,5,1.7,6.1,2.5c2.2,1.4,1.1,3.6,1.9,5
		c0.8,1.4-1.4,2.2-0.6,3.6c0.3,0.8,0.8,2.8-1.4,2.8c-0.3,0-0.3,0.3-0.3,0.3c1.1,2.2-1.1,2.5-2.2,3c-3.3,1.9-6.1,4.4-8.3,7.7
		c-0.8,1.7-3.6,4.1-6.6,1.4c-0.6,2.5-1.4,4.4-3.9,5.2c-1.4,0.6-2.5,2.2-3.6,3.3c-1.4,1.1-3,2.5-5,3c-1.9,0.3-2.5,2.2-3.9,3.3
		c-1.7,1.4-3.9,1.1-5.8,1.9c-1.1,0.3-1.7,0.8-1.9,1.4c-2.2,3.9-5.8,4.7-9.6,6.1c-1.1,0.6-3,0.6-3.9,2.5c-0.3,0.6-0.8,0.6-1.4,0.8
		c-1.4,0.3-2.5,0.8-3.6,1.9c-2.8,3.3-6.3,5-10.5,6.3c-0.8,0.3-1.4,0.6-2.8,0.8c2.5,0.8,3.6,3,6.1,2.8c0.8,0,1.7,1.1,2.8,1.4
		c2.2,1.1,4.7,2.2,7.7,2.5c3.6,0.3,5.5,3.3,7.4,5.8c1.4,1.4,3,1.9,4.7,2.2c1.7,0.6,3.9,0.3,4.7,2.8c0.8-0.6,0.8,1.9,1.9,0.6
		c0.6-0.3,0.8,0,0.6,0.6c-0.8,1.9,0.3,3,1.7,3.9c0.3,0.3,0.6,0.6,0.3,0.8c-1.1,1.4-0.6,2.2,0.6,3.3c1.7,1.9,0,5,0.8,7.4
		c-2.5,0.6-0.6,2.8-1.7,4.1c-1.1,1.7-3,2.2-4.7,2.8c-1.4,0.3-3.9,1.1-1.4,3.3c0.8,0.8,0.3,1.7-0.8,2.2c-0.8,0.6-0.6-0.3-0.8-0.8
		c0-0.6-0.6-0.8-1.1-0.6c-0.8,0.8,0,1.4-0.3,2.5c-1.1-1.4-2.5-1.1-3.9-0.3c-3.3,2.2-7.4,2.5-10.7,5.2c-0.8,0.6-2.8,1.4-4.4,1.4
		c-0.8,0-2.5,0.8-3,2.5c-0.3,0.8-0.8,1.9-2.5,1.4c-0.6,0-2.2-0.3-3,1.4c0,0.3-2.5,2.8-3.6-0.6c0.3,2.8-1.7,3-3.6,4.1
		c-1.9,1.4-4.7,2.2-5.8,5c-0.3,0.8-0.8,0.6-1.4,0.6c-1.9,0-1.9,0-1.7,1.9c-1.4,0.6-1.7-1.7-2.5-0.8c-1.1,1.4,1.1,1.4,1.1,2.5
		c0.8,2.2,3,1.1,4.7,1.4c0.6,0,1.1-0.3,1.9,0c2.8,1.9,6.6,1.4,9.4,2.5c3.3,1.1,6.9,0.8,9.6,2.2c3,1.1,7.2,0.6,10.7,0.8
		c0.8,0,3.3-0.3,3.9,1.9c0,0.8,3.3,0,1.1,2.2c1.4-0.6,1.7,1.1,3,1.1c0.3,0,0.8,0,0.3,0.3c-1.7,2.2,1.1,2.8,1.4,4.1
		c0,0.6,0.6,1.1,0.3,1.4c-1.4,2.8-0.6,6.1-2.8,8.3c-1.7,1.9-4.1,2.8-6.1,3.6c-0.8,0.6-0.3-1.4-0.8-1.9c-1.9,0.3,0.3,1.9-1.4,2.2
		C788.9,191.8,787.5,192.1,786.4,191z"/>
	<path d="M823.9,214.4c-2.8-3-4.4-6.9-3.6-11.8c0.6-1.7,0-3.3,0.8-5c1.1-2.8,0.8-5.8,1.4-8.5c0-2.5,0.6-5.5,2.2-7.7
		c1.1-1.1,1.1-1.7,0.6-2.5c-0.3-1.9,1.4-3.6,1.1-5.5c-0.6-4.7,3.3-9.1,4.4-13.8c0-1.1,0.6-2.2,0.3-3c0-3.3,1.1-6.6,2.5-9.6
		c0.8-2.2,0.6-4.7,1.1-6.9c0.3-3-0.3-6.3,2.8-9.4c1.9-1.9,1.9-5,2.8-7.2c1.1-3.9,1.9-8,3.9-11.6c1.7-3,1.9-6.1,2.2-9.4
		c0-1.4,0.6-3,1.1-3.9c3.6-4.1,3.9-8.8,6.9-13.2c0.3-0.8,0.6-1.9,1.7-2.2c0.3,0,0.8,0,0.6-0.3c-1.4-2.2,0.3-3.9,1.7-5.2
		c3.3-3,2.5-7.2,4.1-10.5c1.4-3,1.9-5.8,1.7-8.8c0.3-2.5,1.9-4.7,2.8-6.6c0.8-2.2,1.4-4.4,2.5-6.6c0.6-1.9,1.9-3,3.3-4.4
		c1.1-0.6,1.9,0.6,2.8-0.8c0.6-1.1,2.8-0.3,3.9,0.3c1.1,0.8,1.7,0,1.9-0.8c1.7-3.3,3.9-5.5,7.4-6.9c2.5-1.1,4.7-3,7.4-2.5
		c4.7,0.3,8.3,2.2,9.6,6.6c1.1,3,2.5,6.3,1.7,9.9c-0.3,0.3,0.3,0.6,0.3,0.8c2.2,3.9,2.2,8.3,1.4,12.9c0,0.8-0.3,1.1,0.3,1.7
		c1.1,1.9,1.9,3.9,1.4,6.3c-0.6,0.3-0.3,1.1,0,1.4c2.2,2.2,0.8,5,0,7.7c-0.3,1.1,0.8,1.4,0.6,2.2c-0.3,1.9,0.6,3.9-0.8,5.8
		c-0.8,0.8,0.3,1.9,0.3,2.8c0.8,2.5,2.5,4.4,1.4,7.7c-0.6,1.7,0,3.9-0.3,6.1c0,1.1,1.1,1.7,1.1,2.8c0.3,4.7,0.6,9.4-0.8,14.3
		c-0.6,1.7,0.3,3,0,4.7l0.6,0.3c0.3-0.3,0.8-0.6,0.8-0.8c-0.3-4.7,2.5-9.4,1.7-14c-0.3-2.2,0.3-4.1,1.4-6.3c1.1-1.7,2.2-3,2.2-5
		c0.3-1.4,1.7-1.4,2.5-2.2c-3-1.7-1.1-4.4,0-6.6c0.6-1.9,0.3-3.9,0-5.5c0-1.7,0.3-2.8,0.8-3.9c0.6-1.4,2.8-2.8,0.8-4.1
		c-0.3-0.6,0.3-0.8,0.8-1.1c0.3-0.3,0.8-0.6,1.1-1.1c-1.4-2.5,1.1-4.7,1.9-7.2c0.3-1.4,0.6-2.8,0.6-4.1c0-1.1-0.3-2.8,1.7-3
		c0.3,0,0.6-0.3,0.6-0.6c-0.8-3,1.4-5.8,2.2-8.5c1.4-4.4,1.9-8.5,5-12.4c2.8-3.3,3.3-7.4,4.4-11c0.6-1.4,1.1-2.5,1.9-3.3
		c1.7-1.7,3.9-2.8,3.3-5.2c0-0.3,0.8-0.8,1.1-0.8c1.4-0.3,2.2-0.6,1.1-1.9c-0.3-0.3,1.7-1.9,2.2-2.8c2.8-3,5.2-6.6,8.5-8.8
		c0.8-0.6,1.1-1.4,2.2-0.8c0.8,0.3,0.3,1.4,0.3,1.9l-2.8,9.4c-1.1,2.5-1.7,5-2.5,7.4c-0.6,2.8-0.6,5.5-1.7,8.5
		c-1.9,4.7-2.5,9.9-3.6,14.9c-0.8,2.8-0.8,5.5-3,7.7c-1.1,1.1-0.3,2.5,0,3.3c0,1.7,0,3-0.8,4.7c-1.7,3.3-0.8,7.2-2.8,10.5
		c-2.2,3.9-1.1,8-3.3,12.1c-0.6,1.4,0.6,2.8,0.6,4.4c-0.6,1.9-1.4,3.6-1.9,5.2c-1.9,3.6-0.3,6.9-1.4,10.2c-1.9,4.1-3,8.5-2.8,12.7
		c0,3-1.9,6.1-0.8,9.1c0.6,1.9-0.8,4.4-1.7,6.1c-2.8,4.4-2.2,9.1-4.1,13.5c-0.8,2.2-0.6,4.4-1.7,6.3c-0.8,1.4,0.6,2.5,0.3,4.1
		c-0.3,4.4-2.8,8.5-5,12.7c-1.1,2.2-1.7,4.7-2.5,7.2c-2.5,5.5-6.1,8.8-11.8,10.7c-2.2,0.8-4.4,2.2-6.6,1.4c-0.3,0-1.1,0.3-0.8-0.3
		c1.9-2.8-1.1-1.4-1.9-2.2c0.3-0.3-0.8,0-0.8-0.6c-1.1-1.9-2.2-4.1-3.9-5.5c-1.9-1.9-0.8-4.4-0.8-6.3s-0.6-3.6-0.8-5.2
		c-0.8-8.3-1.7-16.2-2.8-24.2c0-2.2-0.6-4.4,0-6.6v-0.8c0.8-1.4-2.2-2.5,0.6-4.1c-1.7-1.1-0.6-2.8,0-4.1c1.4-5.2,0.6-10.2,0.3-15.1
		c-0.3-3.3-0.3-6.9-0.6-10.2c-0.8-3.6,0-7.2,0.6-10.7c0-1.9-1.1-4.1-1.4-6.1c-0.6-4.7-0.6-9.6-1.1-14.3c-0.3-1.7-1.4-2.8-1.7-4.1
		c-0.3-0.8-0.8,0.3-1.4,0.3c-0.3,0-0.8-0.3-0.8,0.3c0.6,2.8-1.7,4.7-2.5,6.9c-1.7,3.3-3.9,6.6-3.6,10.5c0,0.6,0.3,1.4-0.3,1.9
		c-1.9,2.2-2.2,5-2.2,7.4c0.3,3.3-1.9,6.1-3,9.4c-0.8,2.8-2.5,5.5-1.4,8.3c0.6,0.8-0.6,1.7-0.8,2.2c-0.6,1.1-1.4,1.9-1.1,3
		c0.8,2.2-1.1,4.1-1.7,6.3c-0.3,0.6-0.8,1.4-1.1,2.5c0,3-1.1,6.1-2.8,9.1c-0.8,1.7-1.4,3.6-1.7,5.5c-0.3,2.2-0.6,4.7-1.9,6.9
		c-1.7,2.5-1.1,4.7-0.8,6.9c-0.3,1.4-0.3,2.2-1.4,3.3c-1.4,1.9-0.8,4.1-2.5,5.8c-0.3,0.3-1.1,0-1.1,1.1c0,1.4,1.4-0.3,1.9,0.8
		c-3,1.1-2.8,3.9-3.6,5.8c-2.2,5.2-4.1,10.5-4.4,16c0,1.7,0.3,4.1-2.2,5.5c-0.3,0.6-0.8,1.7-0.6,2.5c0.3,1.9-1.4,3.9-1.9,5.8
		c-0.6,1.4-1.1,3.3-0.8,4.7c0.3,3-1.4,5.2-3.6,6.9c-2.8,2.2-6.1,4.4-9.6,5C827.2,216.8,825,216,823.9,214.4z"/>
</g>
<g>
	<g>
		<g id="_Group_">
			<path id="_Compound_Path_" class="st1" d="M778.7,248.7c0-0.5,0.2-1,0.5-1.4c0.4-0.4,0.9-0.6,1.4-0.5l20.5,0c0.5,0,1,0.2,1.4,0.5
				c0.4,0.4,0.6,0.9,0.6,1.4l0,4.2c0,0.2,0,0.3,0,0.5c0,0.2-0.1,0.4-0.3,0.6L789.4,270l12,0c0.5,0,1,0.1,1.4,0.5
				c0.4,0.4,0.6,0.9,0.5,1.5l0,3.8c0,0.3,0,0.5-0.1,0.7c-0.1,0.2-0.2,0.5-0.4,0.7c-0.2,0.2-0.4,0.4-0.6,0.5
				c-0.2,0.1-0.5,0.2-0.8,0.2l-21.5,0c-0.3,0-0.5-0.1-0.7-0.2c-0.2-0.1-0.4-0.3-0.6-0.5c-0.2-0.2-0.3-0.4-0.4-0.7
				c-0.1-0.2-0.2-0.5-0.2-0.8l0-3.4c0-0.2,0-0.4,0.1-0.7c0.1-0.2,0.2-0.5,0.4-0.7c1.1-1.2,2.2-2.5,3.4-3.9c1.2-1.4,2.4-2.8,3.6-4.3
				c1.2-1.4,2.4-2.9,3.6-4.3c1.2-1.4,2.3-2.7,3.4-3.9l-11.9,0c-1,0.1-1.9-0.6-2-1.6c0-0.1,0-0.3,0-0.4L778.7,248.7L778.7,248.7z"/>
			<path id="_Compound_Path_2" class="st1" d="M836.9,277.5c-0.2,0.2-0.4,0.3-0.7,0.3c-0.2,0-0.4,0.1-0.7,0.1l-3.7,0
				c-0.3,0-0.5,0-0.8-0.2c-0.2-0.1-0.4-0.2-0.5-0.4c-0.2-0.2-0.3-0.4-0.4-0.6c-0.1-0.2-0.2-0.5-0.2-0.7l-0.8-3.1
				c-0.3,0.6-0.7,1.2-1.1,1.7c-0.5,0.7-1.1,1.3-1.8,1.8c-0.8,0.6-1.6,1.1-2.6,1.4c-1.1,0.4-2.2,0.6-3.4,0.6c-3.4,0.1-6.7-1.4-8.9-4
				c-1.1-1.3-1.9-2.8-2.5-4.3c-0.6-1.7-0.9-3.5-0.9-5.3l0-15.9c0-0.5,0.1-1,0.4-1.4c0.3-0.3,0.8-0.5,1.3-0.5l5.6,0
				c0.7,0,1.2,0.1,1.4,0.4c0.3,0.2,0.4,0.7,0.4,1.4l0,15.9c0,0.7,0.2,1.4,0.5,2c0.3,0.6,0.7,1.2,1.3,1.7c0.5,0.5,1.1,0.9,1.8,1.1
				c0.6,0.3,1.3,0.4,2,0.4c0.6,0,1.2-0.1,1.8-0.4c0.6-0.3,1.2-0.7,1.7-1.1c0.5-0.5,1-1,1.3-1.6c0.3-0.6,0.5-1.3,0.5-2l0-15.8
				c0-0.3,0.1-0.6,0.2-0.8c0.1-0.3,0.3-0.5,0.5-0.6c0.2-0.1,0.4-0.2,0.6-0.3c0.2-0.1,0.4-0.1,0.6-0.1l5.5,0c0.9-0.1,1.8,0.5,2,1.4
				c0,0.1,0,0.3,0,0.5l0,27.3c0,0.3-0.1,0.6-0.2,0.9c-0.1,0.3-0.3,0.5-0.6,0.6L836.9,277.5z"/>
			<path id="_Compound_Path_3" class="st1" d="M844,247.4c0.2-0.2,0.4-0.3,0.7-0.3c0.2,0,0.4-0.1,0.7-0.1l3.7,0c0.3,0,0.5,0,0.8,0.2
				c0.2,0.1,0.4,0.2,0.5,0.4c0.1,0.2,0.3,0.4,0.4,0.6c0.1,0.2,0.2,0.5,0.3,0.7l0.8,3.1c0.2-0.5,0.5-1.1,0.9-1.7
				c0.4-0.7,0.8-1.3,1.4-1.8c0.6-0.6,1.4-1.1,2.2-1.4c1-0.4,2.1-0.6,3.3-0.6c1.9,0,3.8,0.4,5.5,1.3c1.5,0.9,2.9,2.1,3.8,3.6
				c0.4-0.6,0.8-1.1,1.3-1.6c0.6-0.6,1.2-1.1,1.9-1.6c0.8-0.5,1.7-0.9,2.6-1.2c1-0.3,2.1-0.5,3.2-0.5c3.3-0.1,6.5,1.4,8.6,4
				c1,1.3,1.8,2.7,2.3,4.3c0.5,1.7,0.8,3.5,0.8,5.3l0,16c0,0.5-0.1,1-0.4,1.4c-0.3,0.3-0.8,0.5-1.3,0.5l-5.6,0
				c-0.7,0-1.2-0.1-1.4-0.4c-0.3-0.2-0.4-0.7-0.4-1.4l0-16.1c0-0.7-0.1-1.3-0.3-1.9c-0.2-0.6-0.5-1.1-0.9-1.6
				c-0.4-0.4-0.9-0.8-1.4-1c-0.6-0.3-1.2-0.4-1.9-0.4c-0.6,0-1.2,0.1-1.8,0.4c-0.5,0.2-1,0.6-1.5,1c-0.4,0.4-0.8,1-1,1.6
				c-0.3,0.6-0.4,1.3-0.4,2l0,16c0,0.5-0.1,1-0.4,1.4c-0.3,0.3-0.8,0.5-1.3,0.5l-5.6,0c-0.7,0-1.2-0.1-1.4-0.4
				c-0.3-0.2-0.4-0.7-0.4-1.4l0-16.1c0-0.7-0.1-1.3-0.3-1.9c-0.2-0.6-0.5-1.1-0.9-1.6c-0.4-0.4-0.8-0.8-1.4-1
				c-0.6-0.3-1.2-0.4-1.8-0.4c-0.6,0-1.2,0.1-1.7,0.4c-0.6,0.2-1.1,0.6-1.5,1c-0.5,0.4-0.8,1-1.1,1.5c-0.3,0.6-0.5,1.3-0.5,2l0,16.1
				c0,0.3-0.1,0.6-0.2,0.8c-0.1,0.3-0.3,0.5-0.5,0.6c-0.2,0.1-0.4,0.2-0.6,0.3c-0.2,0.1-0.4,0.1-0.6,0.1l-5.5,0
				c-0.9,0.1-1.8-0.5-2-1.4c0-0.1,0-0.3,0-0.5l0-27.2c0-0.3,0.1-0.6,0.2-0.8c0.1-0.3,0.3-0.5,0.6-0.6L844,247.4z"/>
			<path id="_Compound_Path_4" class="st1" d="M903.9,276c-0.1,0.3-0.3,0.6-0.4,0.8c-0.1,0.2-0.2,0.4-0.3,0.6
				c-0.1,0.2-0.3,0.3-0.4,0.4c-0.2,0.1-0.5,0.1-0.7,0.1l-4.8,0c-1.3,0-1.9-0.6-1.9-1.9l0-36.4c0-0.3,0.1-0.5,0.2-0.8
				c0.1-0.2,0.2-0.4,0.4-0.6c0.2-0.2,0.4-0.3,0.6-0.4c0.2-0.1,0.4-0.1,0.6-0.1l5.5,0c0.5,0,1.1,0.2,1.5,0.5c0.4,0.3,0.5,0.8,0.5,1.3
				l0,11.1c0.5-0.5,0.9-1,1.5-1.5c0.5-0.5,1.1-1,1.7-1.4c0.6-0.4,1.3-0.8,2-1c0.8-0.3,1.6-0.4,2.4-0.4c2.1,0,4.2,0.4,6.1,1.2
				c1.8,0.8,3.4,1.9,4.8,3.4c1.4,1.5,2.4,3.2,3.2,5.1c1.5,4.1,1.5,8.5,0,12.6c-0.7,1.9-1.8,3.6-3.2,5.1c-1.4,1.4-3,2.6-4.8,3.4
				c-1.9,0.8-4,1.3-6.1,1.3c-0.8,0-1.6-0.1-2.3-0.4c-0.7-0.3-1.4-0.6-2-1.1c-0.6-0.4-1.2-0.9-1.8-1.4c-0.5-0.5-1-1-1.5-1.4
				L903.9,276z M918.6,262.5c0-1-0.2-2-0.5-3c-0.3-0.9-0.8-1.8-1.4-2.5c-0.6-0.7-1.4-1.3-2.2-1.7c-0.9-0.4-1.9-0.6-2.9-0.6
				c-1,0-2.1,0.2-3,0.6c-0.9,0.4-1.7,1-2.4,1.7c-0.7,0.7-1.2,1.6-1.6,2.5c-0.4,0.9-0.6,2-0.6,3l0,0.3c0.1,2,0.9,3.8,2.3,5.2
				c0.7,0.7,1.5,1.2,2.4,1.5c0.9,0.4,1.9,0.6,2.9,0.6c2,0,3.8-0.8,5.1-2.2c0.6-0.7,1.1-1.5,1.4-2.4
				C918.4,264.5,918.6,263.5,918.6,262.5L918.6,262.5z"/>
			<path id="_Compound_Path_5" class="st1" d="M928.7,249.3c-0.3-0.5-0.3-1.1,0-1.7c0.3-0.5,0.8-0.7,1.7-0.7l6,0
				c0.4,0,0.7,0.1,1,0.4c0.3,0.3,0.5,0.6,0.6,0.9l6.9,19.6l6.7-19.6c0.1-0.4,0.3-0.8,0.7-1c0.3-0.2,0.7-0.3,1.1-0.3l6.2,0
				c0.4,0,0.7,0,1.1,0.2c0.5,0.2,0.8,0.7,0.7,1.2c0,0.3-0.1,0.5-0.2,0.7l-2,5l-2.3,5.6l-2.4,6c-0.8,2-1.6,4-2.4,6
				c-0.8,1.9-1.5,3.8-2.2,5.6c-0.7,1.8-1.4,3.4-2,4.9c-0.6,1.5-1.1,2.8-1.5,3.9c-0.4,1.1-0.8,2-1,2.6l0.1-0.1
				c-0.1,0.4-0.3,0.8-0.6,1.1c-0.3,0.3-0.7,0.4-1.1,0.4l-5.6,0c-0.7,0-1.2-0.1-1.5-0.4c-0.3-0.4-0.4-0.8-0.4-1.3
				c0-0.2,0-0.3,0.1-0.5c0-0.1,0.1-0.2,0.1-0.2l3.8-9.9L928.7,249.3z"/>
		</g>
		<g id="_Group_2">
			<polygon id="_Path_" class="st1" points="732.8,247.2 720.2,247.2 734.7,262.6 720.2,278.4 732.4,278.4 748,262.4 			"/>
			<polygon id="_Path_2" class="st2" points="728.8,242.9 720.2,234.2 701.3,234.2 701.9,252.1 710.7,260.3 710.8,242.9 			"/>
			<polygon id="_Path_3" class="st3" points="731.7,242.9 740.3,234.2 759.2,234.2 758.6,252.1 749.8,260.3 749.8,242.9 			"/>
			<polygon id="_Path_4" class="st4" points="731.6,282.7 740.3,291.4 759.2,291.4 758.6,273.6 749.8,265.4 749.8,282.7 			"/>
			<polygon id="_Path_5" class="st5" points="728.8,282.7 720.2,291.4 701.3,291.4 701.9,273.5 710.7,265.4 710.7,282.7 			"/>
		</g>
	</g>
	<text transform="matrix(1 0 0 1 635.7968 283.8849)" class="st6 st7">by</text>
</g>
</svg>
